<?xml version="1.0" encoding="utf-8"?>
<!-- Generator: Adobe Illustrator 16.0.0, SVG Export Plug-In . SVG Version: 6.00 Build 0)  -->
<!DOCTYPE svg PUBLIC "-//W3C//DTD SVG 1.1//EN" "http://www.w3.org/Graphics/SVG/1.1/DTD/svg11.dtd">
<svg version="1.1" id="Layer_1" xmlns="http://www.w3.org/2000/svg" xmlns:xlink="http://www.w3.org/1999/xlink" x="0px" y="0px"
	 width="64px" height="64px" viewBox="0 0 64 64" enable-background="new 0 0 64 64" xml:space="preserve">
<g id="Ellipse_113">
	<g>
		<path fill="#D8ECFA" d="M25,24C12.297,24,2,30.069,2,37.866C2,45.664,12.297,56,25,56c10.407,0,19.189-6.77,22.027-13.505
			c0.575-1.227,0.851-2.876,0.851-2.876C47.958,39.111,48,38.61,48,38.117C48,30.32,37.702,24,25,24z"/>
	</g>
</g>
<g id="Ellipse_115">
	<g>
		<path fill="#9AACC0" d="M47,19c-0.312,1.082-0.886,3.608-2,5c-1.255,1.567-3.485,2.663-5,3c3.871,2.288,7.765,6.331,8,12l7-17
			L47,19z"/>
	</g>
</g>
<g id="Ellipse_113_1_">
	<g>
		<path fill="#2B3139" d="M61.381,0.068c-0.51-0.203-1.09,0.043-1.297,0.55l-7.736,19.341l-1.624-0.595
			c2.032-5.081,7.203-18.01,7.203-18.01c0.207-0.507-0.037-1.083-0.546-1.286c-0.51-0.203-1.09,0.043-1.297,0.55
			c0,0-5.209,13.021-7.225,18.062l-1.094-0.48c-0.069-0.056-0.353-0.126-0.43-0.153c-0.372-0.133-0.724,0.005-0.854,0.077
			c0.033-0.018,0.04-0.013-0.004,0.012c-0.041,0.023-0.051,0.025-0.048,0.021c-0.137,0.093-0.413,0.346-0.43,0.802
			c-0.142,1.125-0.841,4.877-4,6.042c-1.42,0.523-2.876,0.533-4.001,0.409C34.253,23.893,29.799,23,25,23C11.745,23,1,29.716,1,38
			s10.745,19,24,19c11.836,0,21.646-8.541,23.617-16.269l7.204-18.147c0.021-0.03,0.05-0.051,0.067-0.084
			c0.002-0.004,0.456-1.094-0.553-1.453c-0.012-0.005-0.024-0.002-0.036-0.006l-1.088-0.398l7.715-19.288
			C62.134,0.848,61.89,0.271,61.381,0.068z M46.883,39.643c0,0-0.264,1.547-0.812,2.697C43.355,48.653,34.955,55,25,55
			C12.85,55,3,45.31,3,38s9.85-13,22-13s22,5.926,22,13.235C47,38.697,46.96,39.167,46.883,39.643z M48.598,35.324
			c-0.93-3.219-3.51-6.072-7.157-8.227c1.427-0.316,3.252-0.997,4.435-2.473c1.05-1.311,1.698-3.346,1.992-4.363l5.814,2.256
			L48.598,35.324z M11,34h28c0.552,0,1-0.448,1-1c0-0.553-0.448-1-1-1H11c-0.553,0-1,0.447-1,1C10,33.552,10.447,34,11,34z M43,36H8
			c-0.553,0-1,0.447-1,1c0,0.552,0.447,1,1,1h35c0.552,0,1-0.448,1-1C44,36.447,43.552,36,43,36z M42,40H9c-0.553,0-1,0.447-1,1
			c0,0.552,0.447,1,1,1h33c0.553,0,1-0.448,1-1C43,40.447,42.553,40,42,40z M20,44h-8c-0.553,0-1,0.447-1,1c0,0.552,0.447,1,1,1h8
			c0.552,0,1-0.448,1-1C21,44.447,20.552,44,20,44z"/>
	</g>
</g>
<g id="Ellipse_114">
	<g>
		<circle fill="#FFFFFF" cx="29" cy="52" r="11"/>
	</g>
</g>
<g id="Rounded_Rectangle_253">
	<g>
		<path fill="#2B3139" d="M29,40c-6.628,0-12,5.373-12,12s5.372,12,12,12c6.627,0,12-5.373,12-12S35.627,40,29,40z M29,62
			c-5.523,0-10-4.478-10-10s4.477-10,10-10c5.522,0,10,4.478,10,10S34.522,62,29,62z M25,52c0-1.104-0.896-2-2-2s-2,0.896-2,2
			s0.896,2,2,2S25,53.104,25,52z M26,49c1.104,0,2-0.896,2-2s-0.896-2-2-2s-2,0.896-2,2S24.896,49,26,49z M29,50
			c-1.104,0-2,0.896-2,2s0.896,2,2,2s2-0.896,2-2S30.104,50,29,50z M26,55c-1.104,0-2,0.896-2,2s0.896,2,2,2s2-0.896,2-2
			S27.104,55,26,55z"/>
	</g>
</g>
</svg>
