<?xml version="1.0" encoding="utf-8"?>
<!-- Generator: Adobe Illustrator 23.1.0, SVG Export Plug-In . SVG Version: 6.00 Build 0)  -->
<svg version="1.1" xmlns="http://www.w3.org/2000/svg" xmlns:xlink="http://www.w3.org/1999/xlink" x="0px" y="0px"
	 viewBox="0 0 595.3 595.3" enable-background="new 0 0 595.3 595.3" xml:space="preserve">
<g id="Capa_1">
</g>
<g id="Capa_2">
	<g>
		<g>
			<path fill="#F7A810" stroke="#F2CA71" stroke-width="4.2035" stroke-linecap="round" stroke-linejoin="round" d="M332.4,28
				c-1.4-10.2-10-18.2-20.3-18.9c-7.5-0.4-14.3,2.9-18.6,8.2c-0.6,0.7-1.7,0.7-2.3,0c-4.3-5.4-11.1-8.7-18.6-8.2
				c-10.5,0.7-19.2,9-20.3,19.4c-0.3,2.4-0.2,4.7,0.4,7c2.3,13.4,13.2,26.9,35.3,40.4c2.3,1.4,5.3,1.4,7.6,0.1
				c21.6-13.1,33.5-26.1,36.5-39.1C332.5,34,332.8,31,332.4,28z"/>
		</g>
		<path opacity="0.2" fill="#502D4B" enable-background="new    " d="M291.5,76.9c1.3,0,2.6-0.4,3.8-1.1
			c21.6-13.1,33.5-26.1,36.5-39.1c0.7-2.8,1-5.7,0.5-8.8c-1.4-10.2-10-18.2-20.3-18.9C320.8,30.4,315,52.8,291.5,76.9z"/>
		<g>
			<ellipse id="_Ellipse__3_" opacity="0.15" fill="#45413C" enable-background="new    " cx="293.5" cy="571" rx="169.8" ry="17"/>
			<path fill="#FFFFFF" d="M392.4,427.7l-98.9-32.1l-98.9,32.5c-32.3,9.1-55.1,37.9-56.6,71.4v65.9h311.4v-66.2
				C447.9,465.5,424.9,436.7,392.4,427.7z"/>
			<path fill="#E0E0E0" d="M392.4,427.7l-98.9-32.1l-98.9,32.5c-32.3,9.1-55.1,37.9-56.6,71.4v34c1.4-33.5,24.3-62.3,56.6-71.4
				l98.9-32.5l98.9,32.5c32.3,9.1,55.1,37.9,56.6,71.4v-34C447.7,465.8,424.8,436.9,392.4,427.7z"/>
			<path fill="none" stroke="#F2CA71" stroke-width="4.2035" stroke-linecap="round" stroke-linejoin="round" d="M392.4,427.7
				l-98.9-32.1l-98.9,32.5c-32.3,9.1-55.1,37.9-56.6,71.4v65.9h311.4v-66.2C447.9,465.5,424.9,436.7,392.4,427.7z"/>
			<ellipse id="_Path__3_" fill="#FFFFFF" cx="293.5" cy="418.7" rx="103" ry="47.1"/>
			<path id="_Path_2_3_" fill="#E0E0E0" d="M293.5,371.6c-50.7,0-92.8,16.7-101.3,38.8c8.5,22.1,50.6,38.8,101.9,38.8
				s92.8-16.7,101.9-38.8C386.3,388.4,344.2,371.6,293.5,371.6z"/>
			
				<ellipse id="_Path_3_3_" fill="none" stroke="#F2CA71" stroke-width="4.2035" stroke-linecap="round" stroke-linejoin="round" cx="293.5" cy="418.7" rx="103" ry="47.1"/>
			
				<line id="_Path_4_3_" fill="none" stroke="#F2CA71" stroke-width="4.2035" stroke-linecap="round" stroke-linejoin="round" x1="386.4" y1="565.4" x2="386.4" y2="439.1"/>
			
				<line id="_Path_5_3_" fill="none" stroke="#F2CA71" stroke-width="4.2035" stroke-linecap="round" stroke-linejoin="round" x1="200.5" y1="565.4" x2="200.5" y2="439.1"/>
			<path id="_Path_6_3_" fill="#E0E0E0" d="M457.4,239.9h-10.1c-18.5-85-102.5-138.9-187.5-120.3c-60.2,13.1-107.2,60.1-120.3,120.3
				h-10.1c-6.3,0-11.3,5.1-11.3,11.3v44.4c0,6.3,5.1,11.3,11.3,11.3h10.1c18.5,85,102.5,138.9,187.5,120.3
				c60.2-13.1,107.2-60.1,120.3-120.3h10.1c6.3,0,11.3-5.1,11.3-11.3v-44.4C468.8,244.9,463.7,239.9,457.4,239.9z"/>
			<path fill="#FFFFFF" d="M457.4,239.9h-10.1c-18.5-85-102.5-138.9-187.5-120.3c-60.2,13.1-107.2,60.1-120.3,120.3h-10.1
				c-6.3,0-11.3,5.1-11.3,11.3v26.3c0-6.3,5.1-11.3,11.3-11.3c5.7,0,10.7-3.8,12.2-9.3c23.6-83.8,110.6-132.6,194.3-109
				c52.8,14.9,94.1,56.2,109,109c1.5,5.5,6.5,9.3,12.2,9.3c6.3,0,11.3,5.1,11.3,11.3v-26.3C468.5,245,463.6,240,457.4,239.9z"/>
			<path id="_Path_7_3_" fill="none" stroke="#F2CA71" stroke-width="4.2035" stroke-linecap="round" stroke-linejoin="round" d="
				M457.4,239.9h-10.1c-18.5-85-102.5-138.9-187.5-120.3c-60.2,13.1-107.2,60.1-120.3,120.3h-10.1c-6.3,0-11.3,5.1-11.3,11.3v44.4
				c0,6.3,5.1,11.3,11.3,11.3h10.1c18.5,85,102.5,138.9,187.5,120.3c60.2-13.1,107.2-60.1,120.3-120.3h10.1
				c6.3,0,11.3-5.1,11.3-11.3v-44.4C468.8,244.9,463.7,239.9,457.4,239.9z"/>
			
				<circle id="_Path_8_3_" fill="#91B4B6" stroke="#F2CA71" stroke-width="4.2035" stroke-linecap="round" stroke-linejoin="round" cx="293.5" cy="273.4" r="131.3"/>
			<path fill="#68959C" d="M293.1,176.6c62.4,0,114.2,29.8,124.3,68.9c-14.8-69.2-82.4-113.2-151-98.3c-48.8,10.6-87,49.1-97.5,98.3
				C179,206.4,230.8,176.6,293.1,176.6z"/>
			
				<rect id="_Rectangle__3_" x="223.5" y="502.1" fill="#F7A810" stroke="#F2CA71" stroke-width="4.2035" stroke-linecap="round" stroke-linejoin="round" width="51.5" height="28.3"/>
			
				<circle id="_Path_14_3_" fill="#398087" stroke="#F2CA71" stroke-width="4.2035" stroke-linecap="round" stroke-linejoin="round" cx="349.1" cy="516.2" r="14.1"/>
		</g>
	</g>
</g>
</svg>
