<?xml version="1.0" standalone="no"?>
<!DOCTYPE svg PUBLIC "-//W3C//DTD SVG 20010904//EN"
 "http://www.w3.org/TR/2001/REC-SVG-20010904/DTD/svg10.dtd">
<svg version="1.0" xmlns="http://www.w3.org/2000/svg"
 width="512.000000pt" height="512.000000pt" viewBox="0 0 512.000000 512.000000"
 preserveAspectRatio="xMidYMid meet">

<g transform="translate(0.000000,512.000000) scale(0.100000,-0.100000)"
fill="#000000" stroke="none">
<path d="M3289 4695 c-641 -88 -1177 -558 -1344 -1179 -31 -116 -55 -282 -55
-380 l0 -76 -94 0 c-326 0 -614 -117 -837 -340 -157 -157 -275 -371 -317 -574
-7 -38 -10 -40 -97 -75 -211 -86 -368 -235 -464 -443 -61 -131 -75 -201 -75
-363 1 -123 4 -151 28 -230 87 -289 299 -500 591 -592 l90 -28 1505 -3 c1701
-3 1595 -7 1760 74 168 83 300 242 356 429 14 45 18 92 18 185 0 108 -4 136
-27 205 -30 91 -78 175 -141 250 l-44 50 102 53 c279 145 516 375 670 650 159
284 224 593 200 940 l-7 92 -118 0 -118 0 -41 -75 c-167 -302 -437 -467 -765
-467 -402 -1 -743 268 -836 660 -28 116 -28 286 0 392 68 263 214 446 461 577
l55 29 3 121 3 120 -92 6 c-132 10 -260 7 -370 -8z m-163 -357 c-333 -462
-282 -1101 119 -1503 403 -402 1038 -452 1502 -119 l23 16 -24 -69 c-59 -174
-161 -337 -298 -479 -155 -160 -333 -274 -523 -336 -146 -47 -135 -49 -177 35
-114 232 -329 417 -583 504 -82 28 -227 53 -306 53 l-55 0 -63 96 c-115 176
-288 326 -474 412 l-79 37 5 150 c10 267 75 470 218 690 64 98 257 292 355
357 104 69 302 163 373 177 2 1 -4 -9 -13 -21z m-1201 -1593 c169 -30 310
-102 438 -224 96 -92 164 -194 213 -318 28 -70 41 -92 53 -89 9 2 56 10 105
17 157 21 289 -1 436 -72 70 -34 101 -58 176 -133 105 -106 159 -201 196 -348
19 -73 26 -88 43 -89 173 -6 266 -34 343 -103 208 -188 158 -519 -96 -639
l-67 -32 -1475 -3 c-1630 -3 -1548 -6 -1682 60 -76 38 -201 159 -241 235 -131
247 -58 557 169 719 81 58 165 89 281 105 48 7 89 13 90 13 1 1 7 52 13 114
21 227 98 394 252 550 197 199 473 286 753 237z"/>
</g>
</svg>
