<?xml version="1.0" ?><svg viewBox="0 0 64 64" xmlns="http://www.w3.org/2000/svg"><title/><g id="Snowy"><path d="M55.9771,24.2549A12.0165,12.0165,0,0,0,44,13a12.175,12.175,0,0,0-1.6792.1162,14.9911,14.9911,0,0,0-27.458,1.8848A8.0094,8.0094,0,0,0,7,23a7.9152,7.9152,0,0,0,.0537.916A9.0644,9.0644,0,0,0,2,32a8.8713,8.8713,0,0,0,1.2188,4.5078A1,1,0,0,0,4.08,37H59.74a.9991.9991,0,0,0,.8194-.4268A7.9408,7.9408,0,0,0,62,32,8.0286,8.0286,0,0,0,55.9771,24.2549ZM59.1934,35H4.6787A6.91,6.91,0,0,1,4,32a7.0508,7.0508,0,0,1,4.5259-6.5459,1,1,0,0,0,.62-1.1533A5.9887,5.9887,0,0,1,15,17a4.394,4.394,0,0,1,.4727.0244,1.0052,1.0052,0,0,0,1.0664-.7109,12.9919,12.9919,0,0,1,24.3-1.67.9982.9982,0,0,0,1.1152.5654A10.0107,10.0107,0,0,1,54,25.08a1.0006,1.0006,0,0,0,.86.99A6.0117,6.0117,0,0,1,60,32,5.9447,5.9447,0,0,1,59.1934,35Z"/><path d="M12,40a4,4,0,1,0,4,4A4.0042,4.0042,0,0,0,12,40Zm0,6a2,2,0,1,1,2-2A2.0023,2.0023,0,0,1,12,46Z"/><path d="M20,51a4,4,0,1,0,4,4A4.0042,4.0042,0,0,0,20,51Zm0,6a2,2,0,1,1,2-2A2.0023,2.0023,0,0,1,20,57Z"/><path d="M41,51a4,4,0,1,0,4,4A4.0042,4.0042,0,0,0,41,51Zm0,6a2,2,0,1,1,2-2A2.0023,2.0023,0,0,1,41,57Z"/><path d="M52,40a4,4,0,1,0,4,4A4.0042,4.0042,0,0,0,52,40Zm0,6a2,2,0,1,1,2-2A2.0023,2.0023,0,0,1,52,46Z"/><path d="M32,40a4,4,0,1,0,4,4A4.0042,4.0042,0,0,0,32,40Zm0,6a2,2,0,1,1,2-2A2.0023,2.0023,0,0,1,32,46Z"/></g></svg>