<?xml version="1.0" standalone="no"?>
<!DOCTYPE svg PUBLIC "-//W3C//DTD SVG 20010904//EN"
 "http://www.w3.org/TR/2001/REC-SVG-20010904/DTD/svg10.dtd">
<svg version="1.0" xmlns="http://www.w3.org/2000/svg"
 width="512.000000pt" height="512.000000pt" viewBox="0 0 512.000000 512.000000"
 preserveAspectRatio="xMidYMid meet">

<g transform="translate(0.000000,512.000000) scale(0.100000,-0.100000)"
fill="#000000" stroke="none">
<path d="M2075 5095 c-499 -161 -910 -567 -1073 -1060 -71 -215 -100 -496 -73
-708 81 -627 498 -1148 1093 -1368 815 -300 1756 74 2129 847 54 112 59 143
29 191 -32 53 -57 54 -245 12 -131 -30 -410 -33 -552 -6 -413 77 -779 322
-1005 673 -38 60 -111 210 -136 279 -111 317 -110 633 3 964 37 109 31 151
-25 184 -36 22 -59 20 -145 -8z m-75 -257 c0 -2 -9 -46 -20 -98 -39 -183 -36
-430 5 -637 21 -103 88 -300 132 -387 246 -488 714 -832 1253 -922 126 -21
341 -28 444 -15 49 6 91 10 92 8 7 -7 -133 -189 -198 -257 -231 -240 -523
-392 -868 -452 -104 -18 -362 -14 -477 6 -651 116 -1133 610 -1224 1255 -16
117 -6 360 21 476 97 428 359 771 752 985 65 35 88 45 88 38z"/>
<path d="M678 1481 l-33 -29 -3 -126 -4 -126 -94 50 c-52 28 -106 50 -120 50
-85 0 -135 -98 -83 -164 12 -15 55 -44 97 -65 l77 -39 -82 -40 c-92 -47 -113
-70 -113 -125 0 -29 7 -46 29 -68 42 -42 82 -39 191 16 49 25 92 45 95 45 3 0
5 -48 5 -106 0 -117 13 -162 55 -184 50 -27 115 -8 141 42 10 18 14 62 14 138
0 60 2 110 5 110 3 0 46 -20 95 -45 109 -55 149 -58 191 -16 22 23 29 39 29
69 0 55 -31 89 -119 131 l-71 35 81 42 c93 49 108 65 109 117 0 49 -13 73 -50
92 -44 23 -62 19 -169 -35 l-99 -49 -4 125 -3 126 -33 29 c-22 20 -43 29 -67
29 -24 0 -45 -9 -67 -29z"/>
<path d="M3111 1496 c-42 -23 -50 -53 -51 -178 l0 -117 -102 49 c-111 55 -125
57 -169 34 -43 -22 -63 -72 -46 -120 10 -33 23 -44 89 -79 43 -23 80 -44 84
-47 3 -4 -25 -22 -62 -41 -91 -46 -117 -74 -117 -128 0 -35 6 -48 32 -71 45
-40 84 -37 191 17 49 25 92 45 95 45 3 0 5 -54 5 -119 0 -117 0 -119 29 -150
57 -61 158 -32 175 50 3 18 6 74 6 125 0 52 2 94 5 94 3 0 46 -20 95 -45 120
-60 172 -59 205 5 37 71 11 117 -99 172 l-81 40 77 39 c42 21 85 50 97 65 51
64 0 164 -83 164 -12 0 -64 -20 -115 -45 -51 -25 -94 -45 -97 -45 -2 0 -4 45
-4 100 0 110 -13 157 -51 184 -28 19 -75 20 -108 2z"/>
<path d="M1914 960 c-12 -4 -31 -21 -43 -36 -19 -24 -21 -39 -21 -145 0 -66
-2 -119 -4 -119 -3 0 -48 20 -102 45 -98 45 -146 54 -174 32 -28 -22 -50 -61
-50 -90 0 -46 29 -76 112 -118 43 -21 78 -41 78 -44 0 -3 -35 -23 -78 -44 -44
-22 -86 -51 -95 -65 -45 -68 6 -156 90 -156 14 0 68 20 121 45 52 25 96 45 98
45 2 0 4 -54 4 -119 0 -114 1 -121 26 -150 32 -39 80 -49 124 -26 47 24 60 66
60 190 0 58 2 105 5 105 3 0 46 -20 95 -45 104 -52 145 -57 188 -20 36 30 46
75 28 119 -11 27 -31 42 -99 77 l-86 44 86 44 c70 36 88 51 100 79 19 45 9 85
-29 117 -42 36 -80 32 -187 -20 -51 -25 -94 -45 -97 -45 -2 0 -4 47 -4 105 0
122 -14 166 -59 189 -33 18 -55 19 -87 6z"/>
<path d="M4330 952 c-51 -25 -60 -51 -60 -179 0 -62 -2 -113 -4 -113 -3 0 -46
20 -97 45 -111 54 -148 57 -190 16 -22 -23 -29 -39 -29 -69 0 -54 28 -86 117
-130 l74 -38 -72 -34 c-88 -43 -119 -77 -119 -132 0 -30 7 -46 29 -69 42 -41
79 -38 190 16 51 25 94 45 97 45 2 0 4 -51 4 -112 0 -94 3 -118 19 -144 42
-69 146 -63 176 10 10 24 15 71 15 141 0 58 2 105 4 105 3 0 46 -20 97 -45
111 -54 148 -57 190 -16 22 23 29 39 29 69 0 55 -31 89 -119 132 l-72 34 74
38 c89 44 117 76 117 130 0 32 -6 46 -31 69 -43 40 -78 37 -188 -16 -51 -25
-94 -45 -97 -45 -2 0 -4 47 -4 105 0 129 -14 169 -64 190 -44 19 -44 19 -86
-3z"/>
</g>
</svg>
