<?xml version="1.0" ?><svg viewBox="0 0 64 64" xmlns="http://www.w3.org/2000/svg"><title/><g id="Storm"><path d="M55.9771,25.2549A12.015,12.015,0,0,0,44,14a12.1858,12.1858,0,0,0-1.6792.1162A14.9915,14.9915,0,0,0,14.8623,16.001,8.01,8.01,0,0,0,7,24a7.91,7.91,0,0,0,.0537.916A9.0644,9.0644,0,0,0,2,33a8.8727,8.8727,0,0,0,1.2188,4.5078A.9991.9991,0,0,0,4.08,38H59.74a.9991.9991,0,0,0,.8194-.4268A7.942,7.942,0,0,0,62,33,8.0294,8.0294,0,0,0,55.9771,25.2549ZM59.1934,36H4.6787A6.91,6.91,0,0,1,4,33a7.0491,7.0491,0,0,1,4.5259-6.5454,1,1,0,0,0,.62-1.1533A5.9891,5.9891,0,0,1,15,18a4.4324,4.4324,0,0,1,.4751.0244,1.0011,1.0011,0,0,0,1.064-.7119,12.9923,12.9923,0,0,1,24.3-1.6694,1,1,0,0,0,1.1147.5659A10.0112,10.0112,0,0,1,54,26.08a1,1,0,0,0,.86.99A6.0121,6.0121,0,0,1,60,33,5.9447,5.9447,0,0,1,59.1934,36Z"/><path d="M17,45H13.2808l.6894-2.7573A1,1,0,0,0,13,41H8a1,1,0,0,0-.9614.7251l-2,7A1,1,0,0,0,6,50H7.7192L6.03,56.7573a1,1,0,0,0,1.71.9156l10-11A1,1,0,0,0,17,45ZM8.9346,53.3857,9.97,49.2427A1,1,0,0,0,9,48H7.3257l1.4287-5h2.9648L11.03,45.7573A1,1,0,0,0,12,47h2.7393Z"/><path d="M38,45H34.2808l.6894-2.7573A1,1,0,0,0,34,41H29a1,1,0,0,0-.9614.7251l-2,7A1,1,0,0,0,27,50h1.7192L27.03,56.7573a1,1,0,0,0,1.71.9156l10-11A1,1,0,0,0,38,45Zm-8.0654,8.3857,1.0356-4.143A1,1,0,0,0,30,48H28.3257l1.4287-5h2.9648L32.03,45.7573A1,1,0,0,0,33,47h2.7393Z"/><path d="M58,45H54.2808l.6894-2.7573A1,1,0,0,0,54,41H49a1,1,0,0,0-.9614.7251l-2,7A1,1,0,0,0,47,50h1.7192L47.03,56.7573a1,1,0,0,0,1.71.9156l10-11A1,1,0,0,0,58,45Zm-8.0654,8.3857,1.0356-4.143A1,1,0,0,0,50,48H48.3257l1.4287-5h2.9648L52.03,45.7573A1,1,0,0,0,53,47h2.7393Z"/></g></svg>