<svg xmlns="http://www.w3.org/2000/svg" viewBox="0 0 64 64"><title/><g id="Windy"><path d="M55.9775,24.2549A12.0171,12.0171,0,0,0,44,13a12.1822,12.1822,0,0,0-1.68.1162,14.9911,14.9911,0,0,0-27.458,1.8848A8.0093,8.0093,0,0,0,7,23a7.7816,7.7816,0,0,0,.0537.916A9.0645,9.0645,0,0,0,2,32a8.8714,8.8714,0,0,0,1.2188,4.5078A.9986.9986,0,0,0,4.08,37H59.74a.9993.9993,0,0,0,.8194-.4268A7.9408,7.9408,0,0,0,62,32,8.0292,8.0292,0,0,0,55.9775,24.2549ZM59.1934,35H4.6787A6.9042,6.9042,0,0,1,4,32a7.05,7.05,0,0,1,4.5264-6.5459A1,1,0,0,0,9.1455,24.3,5.9047,5.9047,0,0,1,9,23a6.0066,6.0066,0,0,1,6-6,4.4008,4.4008,0,0,1,.4727.0244.9961.9961,0,0,0,1.0664-.7109,12.9916,12.9916,0,0,1,24.3-1.67.9978.9978,0,0,0,1.1152.5654A10.0112,10.0112,0,0,1,54,25.08a1,1,0,0,0,.86.99A6.0117,6.0117,0,0,1,60,32,5.9447,5.9447,0,0,1,59.1934,35Z" fill="#ffffff"/><path d="M12.7725,44.0225,13,45l-.3066-.9521a.9608.9608,0,0,0-.6016,1.24,1.0406,1.0406,0,0,0,1.2959.6367.9407.9407,0,0,1,1.1953.6563.9039.9039,0,0,1-.5332,1.23,3.0783,3.0783,0,0,1-1.7832.1035A3.0031,3.0031,0,0,1,13,42H37a1,1,0,0,0,0-2H13a5.0027,5.0027,0,0,0-1.1855,9.8633,5.2691,5.2691,0,0,0,1.1845.1357,4.987,4.987,0,0,0,1.752-.3144,3.002,3.002,0,0,0-1.9785-5.6621Z" fill="#ffffff"/><path d="M35.9639,51H26.0361a4.0014,4.0014,0,0,0-.9472,7.89,4.1685,4.1685,0,0,0,.9463.11,3.98,3.98,0,0,0,1.4-.2529,2.5013,2.5013,0,0,0-1.624-4.7256c-.0127.0039-.0918.0293-.1035.0342a.97.97,0,0,0-.5879,1.247,1.0269,1.0269,0,0,0,1.2813.63.4437.4437,0,0,1,.5849.334.4271.4271,0,0,1-.2509.6074,2.0692,2.0692,0,0,1-1.1934.0684,1.9757,1.9757,0,0,1-1.45-1.4561A2.0051,2.0051,0,0,1,26.0361,53h9.9278a1,1,0,0,0,0-2Z" fill="#ffffff"/><path d="M51,45H25a1,1,0,0,0,0,2H51a3.0024,3.0024,0,0,1,.7344,5.9141,3.09,3.09,0,0,1-1.7842-.1026.9039.9039,0,0,1-.5332-1.23.9272.9272,0,0,1,1.1777-.6622l.0987.0332a1,1,0,0,0,.6132-1.9042l-.0966-.0313a3.0024,3.0024,0,0,0-1.961,5.668,4.9992,4.9992,0,0,0,1.752.3144,5.2222,5.2222,0,0,0,1.1855-.1367,4.9507,4.9507,0,0,0,3.68-3.6924A5.0068,5.0068,0,0,0,51,45Z" fill="#ffffff"/></g></svg>